<svg width="29" height="30" viewBox="0 0 29 30" fill="none" xmlns="http://www.w3.org/2000/svg">
<path d="M16.5054 4.35266H1.31455C0.589699 4.35266 0 4.94236 0 5.66721V28.6414C0 29.3663 0.589699 29.956 1.31455 29.956H16.5054C17.2303 29.956 17.82 29.3663 17.82 28.6414V5.66731C17.82 4.94236 17.2303 4.35266 16.5054 4.35266ZM14.7475 27.703H3.07233C2.61991 27.703 2.25304 27.3362 2.25304 26.8837C2.25304 26.4313 2.61991 26.0645 3.07233 26.0645H14.7475C15.2 26.0645 15.5668 26.4313 15.5668 26.8837C15.5668 27.3362 15.2 27.703 14.7475 27.703ZM14.7475 23.8113H3.07233C2.61991 23.8113 2.25304 23.4444 2.25304 22.992C2.25304 22.5396 2.61991 22.1727 3.07233 22.1727H14.7475C15.2 22.1727 15.5668 22.5396 15.5668 22.992C15.5668 23.4444 15.2 23.8113 14.7475 23.8113ZM14.7475 19.9196H3.07233C2.61991 19.9196 2.25304 19.5527 2.25304 19.1003C2.25304 18.6479 2.61991 18.281 3.07233 18.281H14.7475C15.2 18.281 15.5668 18.6479 15.5668 19.1003C15.5668 19.5527 15.2 19.9196 14.7475 19.9196ZM14.7475 16.0279H3.07233C2.61991 16.0279 2.25304 15.661 2.25304 15.2086C2.25304 14.7561 2.61991 14.3893 3.07233 14.3893H14.7475C15.2 14.3893 15.5668 14.7561 15.5668 15.2086C15.5668 15.661 15.2 16.0279 14.7475 16.0279ZM14.7475 12.1361H3.07233C2.61991 12.1361 2.25304 11.7693 2.25304 11.3168C2.25304 10.8644 2.61991 10.4975 3.07233 10.4975H14.7475C15.2 10.4975 15.5668 10.8644 15.5668 11.3168C15.5668 11.7693 15.2 12.1361 14.7475 12.1361ZM14.7475 8.24439H3.07233C2.61991 8.24439 2.25304 7.87752 2.25304 7.4251C2.25304 6.97267 2.61991 6.6058 3.07233 6.6058H14.7475C15.2 6.6058 15.5668 6.97267 15.5668 7.4251C15.5668 7.87752 15.2 8.24439 14.7475 8.24439Z" fill="#0D772F"/>
<path d="M20.9948 0.00012207H5.20627C4.48132 0.00012207 3.89172 0.589821 3.89172 1.31467V2.71407H16.5054C18.1338 2.71407 19.4586 4.03882 19.4586 5.66731V26.0645H20.9948C21.7197 26.0645 22.3094 25.4748 22.3094 24.7499V1.31467C22.3094 0.589821 21.7197 0.00012207 20.9948 0.00012207Z" fill="#0D772F"/>
<path d="M28.8295 2.35609C28.8294 1.0571 27.8876 0.00012207 26.73 0.00012207C25.5723 0.00012207 24.6305 1.0571 24.6305 2.35609V3.72822H28.8295V2.35609Z" fill="#0D772F"/>
<path d="M24.6305 5.36682V27.0373C24.6305 27.1585 24.665 27.277 24.7298 27.3778L26.237 29.7262C26.3468 29.8973 26.5318 30.0001 26.73 30.0001C26.9281 30.0001 27.1132 29.8973 27.223 29.7262L28.7302 27.3778C28.795 27.277 28.8295 27.1585 28.8295 27.0373V5.36682H24.6305Z" fill="#0D772F"/>
</svg>
