<svg width="" height="55" viewBox="0 0 169 83" fill="none" xmlns="http://www.w3.org/2000/svg">
<path d="M29.0156 34L17.2969 34.5625L17.2031 23.7344H11.8125L11.4844 34H0.984375L1.875 1.04688L13.0312 1.5625L12.3281 18.3906H17.5312L17.5781 0.296875L28.2656 0.578125L29.0156 34ZM59.9766 16.0469C59.9766 17.4688 59.8125 18.8438 59.4844 20.1719C59.1562 21.4844 58.6797 22.7188 58.0547 23.875C57.4453 25.0312 56.6953 26.0938 55.8047 27.0625C54.9297 28.0156 53.9375 28.8359 52.8281 29.5234C51.7344 30.2109 50.5391 30.75 49.2422 31.1406C47.9453 31.5156 46.5703 31.7031 45.1172 31.7031C43.7109 31.7031 42.3672 31.5234 41.0859 31.1641C39.8203 30.8047 38.6328 30.3047 37.5234 29.6641C36.4141 29.0078 35.4062 28.2266 34.5 27.3203C33.6094 26.3984 32.8438 25.3828 32.2031 24.2734C31.5781 23.1484 31.0859 21.9453 30.7266 20.6641C30.3828 19.3828 30.2109 18.0469 30.2109 16.6562C30.2109 15.2969 30.375 13.9688 30.7031 12.6719C31.0312 11.3594 31.5 10.125 32.1094 8.96875C32.7344 7.8125 33.4844 6.75 34.3594 5.78125C35.2344 4.8125 36.2109 3.97656 37.2891 3.27344C38.3828 2.57031 39.5625 2.02344 40.8281 1.63281C42.0938 1.24219 43.4297 1.04688 44.8359 1.04688C47.1016 1.04688 49.1641 1.39844 51.0234 2.10156C52.8984 2.80469 54.4922 3.8125 55.8047 5.125C57.1328 6.42187 58.1562 8 58.875 9.85938C59.6094 11.7031 59.9766 13.7656 59.9766 16.0469ZM49.5703 16.6562C49.5703 15.9844 49.4688 15.3359 49.2656 14.7109C49.0781 14.0703 48.7969 13.5078 48.4219 13.0234C48.0469 12.5234 47.5781 12.125 47.0156 11.8281C46.4688 11.5156 45.8359 11.3594 45.1172 11.3594C44.3828 11.3594 43.7266 11.4922 43.1484 11.7578C42.5703 12.0234 42.0703 12.3906 41.6484 12.8594C41.2422 13.3125 40.9297 13.8516 40.7109 14.4766C40.4922 15.0859 40.3828 15.7344 40.3828 16.4219C40.3828 17.0781 40.4766 17.7344 40.6641 18.3906C40.8516 19.0469 41.1328 19.6406 41.5078 20.1719C41.8828 20.7031 42.3438 21.1328 42.8906 21.4609C43.4531 21.7891 44.1016 21.9531 44.8359 21.9531C45.5703 21.9531 46.2266 21.8125 46.8047 21.5312C47.3984 21.2344 47.8984 20.8438 48.3047 20.3594C48.7109 19.8594 49.0234 19.2891 49.2422 18.6484C49.4609 18.0078 49.5703 17.3438 49.5703 16.6562ZM103.289 1.46875L97.8047 33.0156L84.4922 33.2969L81.6328 17.4062L78.7734 32.0781L65.4609 32.5469L59.9297 2.40625L71.5547 1.375L73.8984 19.8906L77.0391 2.78125H86.1797L89.8359 20.125L91.7109 0.4375L103.289 1.46875ZM138.844 0.953125L138.609 10.8906L131.625 11.1719L130.781 32.9219L120.891 33.4375L120 11.6875L113.016 12.0625L113.297 1L138.844 0.953125ZM168.68 16.0469C168.68 17.4688 168.516 18.8438 168.188 20.1719C167.859 21.4844 167.383 22.7188 166.758 23.875C166.148 25.0312 165.398 26.0938 164.508 27.0625C163.633 28.0156 162.641 28.8359 161.531 29.5234C160.438 30.2109 159.242 30.75 157.945 31.1406C156.648 31.5156 155.273 31.7031 153.82 31.7031C152.414 31.7031 151.07 31.5234 149.789 31.1641C148.523 30.8047 147.336 30.3047 146.227 29.6641C145.117 29.0078 144.109 28.2266 143.203 27.3203C142.312 26.3984 141.547 25.3828 140.906 24.2734C140.281 23.1484 139.789 21.9453 139.43 20.6641C139.086 19.3828 138.914 18.0469 138.914 16.6562C138.914 15.2969 139.078 13.9688 139.406 12.6719C139.734 11.3594 140.203 10.125 140.812 8.96875C141.438 7.8125 142.188 6.75 143.062 5.78125C143.938 4.8125 144.914 3.97656 145.992 3.27344C147.086 2.57031 148.266 2.02344 149.531 1.63281C150.797 1.24219 152.133 1.04688 153.539 1.04688C155.805 1.04688 157.867 1.39844 159.727 2.10156C161.602 2.80469 163.195 3.8125 164.508 5.125C165.836 6.42187 166.859 8 167.578 9.85938C168.312 11.7031 168.68 13.7656 168.68 16.0469ZM158.273 16.6562C158.273 15.9844 158.172 15.3359 157.969 14.7109C157.781 14.0703 157.5 13.5078 157.125 13.0234C156.75 12.5234 156.281 12.125 155.719 11.8281C155.172 11.5156 154.539 11.3594 153.82 11.3594C153.086 11.3594 152.43 11.4922 151.852 11.7578C151.273 12.0234 150.773 12.3906 150.352 12.8594C149.945 13.3125 149.633 13.8516 149.414 14.4766C149.195 15.0859 149.086 15.7344 149.086 16.4219C149.086 17.0781 149.18 17.7344 149.367 18.3906C149.555 19.0469 149.836 19.6406 150.211 20.1719C150.586 20.7031 151.047 21.1328 151.594 21.4609C152.156 21.7891 152.805 21.9531 153.539 21.9531C154.273 21.9531 154.93 21.8125 155.508 21.5312C156.102 21.2344 156.602 20.8438 157.008 20.3594C157.414 19.8594 157.727 19.2891 157.945 18.6484C158.164 18.0078 158.273 17.3438 158.273 16.6562ZM28.4766 73.6562C28.4766 74.9531 28.2344 76.0703 27.75 77.0078C27.2812 77.9453 26.6484 78.7422 25.8516 79.3984C25.0547 80.0547 24.1328 80.5938 23.0859 81.0156C22.0547 81.4219 20.9766 81.7422 19.8516 81.9766C18.7266 82.2109 17.5938 82.3672 16.4531 82.4453C15.3281 82.5234 14.2734 82.5625 13.2891 82.5625C12.3203 82.5625 11.3125 82.5234 10.2656 82.4453C9.23438 82.3828 8.20312 82.2656 7.17188 82.0938C6.14062 81.9219 5.125 81.6953 4.125 81.4141C3.125 81.1172 2.17969 80.75 1.28906 80.3125L1.24219 50.125C2.11719 49.7656 3.04688 49.4453 4.03125 49.1641C5.01562 48.8672 6.01562 48.625 7.03125 48.4375C8.0625 48.2344 9.08594 48.0859 10.1016 47.9922C11.1172 47.8828 12.1016 47.8281 13.0547 47.8281C14.1641 47.8281 15.2812 47.8984 16.4062 48.0391C17.5469 48.1797 18.6406 48.4141 19.6875 48.7422C20.7344 49.0703 21.7109 49.5 22.6172 50.0312C23.5234 50.5469 24.3125 51.1875 24.9844 51.9531C25.6719 52.7188 26.2031 53.6094 26.5781 54.625C26.9688 55.6406 27.1641 56.8125 27.1641 58.1406C27.1641 59.0156 27.0391 59.8359 26.7891 60.6016C26.5391 61.3672 26.1797 62.0547 25.7109 62.6641C25.2422 63.2734 24.6719 63.7969 24 64.2344C23.3281 64.6562 22.5703 64.9688 21.7266 65.1719C22.7422 65.4375 23.6641 65.8281 24.4922 66.3438C25.3359 66.8594 26.0469 67.4844 26.625 68.2188C27.2188 68.9531 27.6719 69.7812 27.9844 70.7031C28.3125 71.625 28.4766 72.6094 28.4766 73.6562ZM16.5703 60.2969C16.5703 59.8438 16.4766 59.4609 16.2891 59.1484C16.1016 58.8203 15.8672 58.5547 15.5859 58.3516C15.3203 58.1484 15.0234 58 14.6953 57.9062C14.3828 57.8125 14.1016 57.7656 13.8516 57.7656C13.5391 57.7656 13.2344 57.8125 12.9375 57.9062C12.6406 58 12.3516 58.1094 12.0703 58.2344L11.9297 63.4375C12.2891 63.4375 12.7344 63.4062 13.2656 63.3438C13.7969 63.2812 14.3047 63.1484 14.7891 62.9453C15.2891 62.7266 15.7109 62.4141 16.0547 62.0078C16.3984 61.5859 16.5703 61.0156 16.5703 60.2969ZM13.2422 67.9375C12.7891 67.9375 12.3516 67.9844 11.9297 68.0781L11.8359 73.4219C12.0703 73.4688 12.2969 73.5156 12.5156 73.5625C12.75 73.5938 12.9766 73.6094 13.1953 73.6094C13.5234 73.6094 13.8828 73.5781 14.2734 73.5156C14.6641 73.4375 15.0312 73.2969 15.375 73.0938C15.7188 72.875 16 72.5859 16.2188 72.2266C16.4531 71.8672 16.5703 71.3906 16.5703 70.7969C16.5703 70.2031 16.4531 69.7188 16.2188 69.3438C16 68.9688 15.7266 68.6797 15.3984 68.4766C15.0703 68.2578 14.7109 68.1172 14.3203 68.0547C13.9297 67.9766 13.5703 67.9375 13.2422 67.9375ZM57.2109 59.4062C57.2109 60.625 57.1016 61.7344 56.8828 62.7344C56.6797 63.7188 56.3516 64.625 55.8984 65.4531C55.4453 66.2812 54.8594 67.0469 54.1406 67.75C53.4219 68.4531 52.5547 69.125 51.5391 69.7656L57.1172 79.7031L46.5703 81.7656L42.9609 71.7812L40.0547 71.875L39.6328 81.625H29.5547C29.6328 78.0625 29.7031 74.5156 29.7656 70.9844C29.8438 67.4531 29.9297 63.9062 30.0234 60.3438C30.0547 58.5469 30.0859 56.7656 30.1172 55C30.1484 53.2344 30.2109 51.4531 30.3047 49.6562C31.3984 49.25 32.4766 48.9141 33.5391 48.6484C34.6016 48.3828 35.6641 48.1797 36.7266 48.0391C37.8047 47.8828 38.8906 47.7812 39.9844 47.7344C41.0938 47.6719 42.2266 47.6406 43.3828 47.6406C45.1641 47.6406 46.8828 47.8906 48.5391 48.3906C50.2109 48.875 51.6875 49.6094 52.9688 50.5938C54.25 51.5781 55.2734 52.8047 56.0391 54.2734C56.8203 55.7422 57.2109 57.4531 57.2109 59.4062ZM46.7109 60.1562C46.7109 59.5 46.6172 58.8984 46.4297 58.3516C46.2578 57.8047 45.9922 57.3359 45.6328 56.9453C45.2891 56.5391 44.8516 56.2266 44.3203 56.0078C43.8047 55.7734 43.1953 55.6562 42.4922 55.6562C42.1797 55.6562 41.875 55.6797 41.5781 55.7266C41.2812 55.7578 40.9922 55.8125 40.7109 55.8906L40.3359 64.6094H40.8984C41.5703 64.6094 42.25 64.5234 42.9375 64.3516C43.6406 64.1797 44.2656 63.9141 44.8125 63.5547C45.375 63.1953 45.8281 62.7344 46.1719 62.1719C46.5312 61.6094 46.7109 60.9375 46.7109 60.1562ZM88.4062 79.9844L76.7812 81.4844L75.375 76.1875H70.0312L68.8594 81.4844L56.9062 80.3125L66.2344 49.0938L79.2656 48.4375L88.4062 79.9844ZM74.5312 69.0156L72.75 60.8594L71.0156 69.0156H74.5312ZM110.883 57.2031L100.148 70.75H110.039L110.367 80.6875L89.4609 81.5312L88.5234 72.3438L100.758 57.3438L88.6172 58.1875L88.5234 48.7656H110.461L110.883 57.2031ZM124.945 49L123.305 80.9219L113.414 81.4375L112.477 49.6562L124.945 49ZM147.422 69.5781L146.438 79.9844L126.703 81.5312L127.453 48.0625H139.641L137.906 69.5781H147.422Z" fill="#09A599"/>
</svg>
