<svg width="280" height="30" viewBox="0 0 326 36" fill="none" xmlns="http://www.w3.org/2000/svg">
<path d="M29.0156 35L17.2969 35.5625L17.2031 24.7344H11.8125L11.4844 35H0.984375L1.875 2.04688L13.0312 2.5625L12.3281 19.3906H17.5312L17.5781 1.29688L28.2656 1.57812L29.0156 35ZM59.9766 17.0469C59.9766 18.4688 59.8125 19.8438 59.4844 21.1719C59.1562 22.4844 58.6797 23.7188 58.0547 24.875C57.4453 26.0312 56.6953 27.0938 55.8047 28.0625C54.9297 29.0156 53.9375 29.8359 52.8281 30.5234C51.7344 31.2109 50.5391 31.75 49.2422 32.1406C47.9453 32.5156 46.5703 32.7031 45.1172 32.7031C43.7109 32.7031 42.3672 32.5234 41.0859 32.1641C39.8203 31.8047 38.6328 31.3047 37.5234 30.6641C36.4141 30.0078 35.4062 29.2266 34.5 28.3203C33.6094 27.3984 32.8438 26.3828 32.2031 25.2734C31.5781 24.1484 31.0859 22.9453 30.7266 21.6641C30.3828 20.3828 30.2109 19.0469 30.2109 17.6562C30.2109 16.2969 30.375 14.9688 30.7031 13.6719C31.0312 12.3594 31.5 11.125 32.1094 9.96875C32.7344 8.8125 33.4844 7.75 34.3594 6.78125C35.2344 5.8125 36.2109 4.97656 37.2891 4.27344C38.3828 3.57031 39.5625 3.02344 40.8281 2.63281C42.0938 2.24219 43.4297 2.04688 44.8359 2.04688C47.1016 2.04688 49.1641 2.39844 51.0234 3.10156C52.8984 3.80469 54.4922 4.8125 55.8047 6.125C57.1328 7.42187 58.1562 9 58.875 10.8594C59.6094 12.7031 59.9766 14.7656 59.9766 17.0469ZM49.5703 17.6562C49.5703 16.9844 49.4688 16.3359 49.2656 15.7109C49.0781 15.0703 48.7969 14.5078 48.4219 14.0234C48.0469 13.5234 47.5781 13.125 47.0156 12.8281C46.4688 12.5156 45.8359 12.3594 45.1172 12.3594C44.3828 12.3594 43.7266 12.4922 43.1484 12.7578C42.5703 13.0234 42.0703 13.3906 41.6484 13.8594C41.2422 14.3125 40.9297 14.8516 40.7109 15.4766C40.4922 16.0859 40.3828 16.7344 40.3828 17.4219C40.3828 18.0781 40.4766 18.7344 40.6641 19.3906C40.8516 20.0469 41.1328 20.6406 41.5078 21.1719C41.8828 21.7031 42.3438 22.1328 42.8906 22.4609C43.4531 22.7891 44.1016 22.9531 44.8359 22.9531C45.5703 22.9531 46.2266 22.8125 46.8047 22.5312C47.3984 22.2344 47.8984 21.8438 48.3047 21.3594C48.7109 20.8594 49.0234 20.2891 49.2422 19.6484C49.4609 19.0078 49.5703 18.3438 49.5703 17.6562ZM103.289 2.46875L97.8047 34.0156L84.4922 34.2969L81.6328 18.4062L78.7734 33.0781L65.4609 33.5469L59.9297 3.40625L71.5547 2.375L73.8984 20.8906L77.0391 3.78125H86.1797L89.8359 21.125L91.7109 1.4375L103.289 2.46875ZM138.844 1.95312L138.609 11.8906L131.625 12.1719L130.781 33.9219L120.891 34.4375L120 12.6875L113.016 13.0625L113.297 2L138.844 1.95312ZM168.68 17.0469C168.68 18.4688 168.516 19.8438 168.188 21.1719C167.859 22.4844 167.383 23.7188 166.758 24.875C166.148 26.0312 165.398 27.0938 164.508 28.0625C163.633 29.0156 162.641 29.8359 161.531 30.5234C160.438 31.2109 159.242 31.75 157.945 32.1406C156.648 32.5156 155.273 32.7031 153.82 32.7031C152.414 32.7031 151.07 32.5234 149.789 32.1641C148.523 31.8047 147.336 31.3047 146.227 30.6641C145.117 30.0078 144.109 29.2266 143.203 28.3203C142.312 27.3984 141.547 26.3828 140.906 25.2734C140.281 24.1484 139.789 22.9453 139.43 21.6641C139.086 20.3828 138.914 19.0469 138.914 17.6562C138.914 16.2969 139.078 14.9688 139.406 13.6719C139.734 12.3594 140.203 11.125 140.812 9.96875C141.438 8.8125 142.188 7.75 143.062 6.78125C143.938 5.8125 144.914 4.97656 145.992 4.27344C147.086 3.57031 148.266 3.02344 149.531 2.63281C150.797 2.24219 152.133 2.04688 153.539 2.04688C155.805 2.04688 157.867 2.39844 159.727 3.10156C161.602 3.80469 163.195 4.8125 164.508 6.125C165.836 7.42187 166.859 9 167.578 10.8594C168.312 12.7031 168.68 14.7656 168.68 17.0469ZM158.273 17.6562C158.273 16.9844 158.172 16.3359 157.969 15.7109C157.781 15.0703 157.5 14.5078 157.125 14.0234C156.75 13.5234 156.281 13.125 155.719 12.8281C155.172 12.5156 154.539 12.3594 153.82 12.3594C153.086 12.3594 152.43 12.4922 151.852 12.7578C151.273 13.0234 150.773 13.3906 150.352 13.8594C149.945 14.3125 149.633 14.8516 149.414 15.4766C149.195 16.0859 149.086 16.7344 149.086 17.4219C149.086 18.0781 149.18 18.7344 149.367 19.3906C149.555 20.0469 149.836 20.6406 150.211 21.1719C150.586 21.7031 151.047 22.1328 151.594 22.4609C152.156 22.7891 152.805 22.9531 153.539 22.9531C154.273 22.9531 154.93 22.8125 155.508 22.5312C156.102 22.2344 156.602 21.8438 157.008 21.3594C157.414 20.8594 157.727 20.2891 157.945 19.6484C158.164 19.0078 158.273 18.3438 158.273 17.6562ZM206.977 26.6562C206.977 27.9531 206.734 29.0703 206.25 30.0078C205.781 30.9453 205.148 31.7422 204.352 32.3984C203.555 33.0547 202.633 33.5938 201.586 34.0156C200.555 34.4219 199.477 34.7422 198.352 34.9766C197.227 35.2109 196.094 35.3672 194.953 35.4453C193.828 35.5234 192.773 35.5625 191.789 35.5625C190.82 35.5625 189.812 35.5234 188.766 35.4453C187.734 35.3828 186.703 35.2656 185.672 35.0938C184.641 34.9219 183.625 34.6953 182.625 34.4141C181.625 34.1172 180.68 33.75 179.789 33.3125L179.742 3.125C180.617 2.76563 181.547 2.44531 182.531 2.16406C183.516 1.86719 184.516 1.625 185.531 1.4375C186.562 1.23437 187.586 1.08594 188.602 0.992188C189.617 0.882812 190.602 0.828125 191.555 0.828125C192.664 0.828125 193.781 0.898438 194.906 1.03906C196.047 1.17969 197.141 1.41406 198.188 1.74219C199.234 2.07031 200.211 2.5 201.117 3.03125C202.023 3.54688 202.812 4.1875 203.484 4.95312C204.172 5.71875 204.703 6.60938 205.078 7.625C205.469 8.64062 205.664 9.8125 205.664 11.1406C205.664 12.0156 205.539 12.8359 205.289 13.6016C205.039 14.3672 204.68 15.0547 204.211 15.6641C203.742 16.2734 203.172 16.7969 202.5 17.2344C201.828 17.6562 201.07 17.9688 200.227 18.1719C201.242 18.4375 202.164 18.8281 202.992 19.3438C203.836 19.8594 204.547 20.4844 205.125 21.2188C205.719 21.9531 206.172 22.7812 206.484 23.7031C206.812 24.625 206.977 25.6094 206.977 26.6562ZM195.07 13.2969C195.07 12.8438 194.977 12.4609 194.789 12.1484C194.602 11.8203 194.367 11.5547 194.086 11.3516C193.82 11.1484 193.523 11 193.195 10.9062C192.883 10.8125 192.602 10.7656 192.352 10.7656C192.039 10.7656 191.734 10.8125 191.438 10.9062C191.141 11 190.852 11.1094 190.57 11.2344L190.43 16.4375C190.789 16.4375 191.234 16.4062 191.766 16.3438C192.297 16.2812 192.805 16.1484 193.289 15.9453C193.789 15.7266 194.211 15.4141 194.555 15.0078C194.898 14.5859 195.07 14.0156 195.07 13.2969ZM191.742 20.9375C191.289 20.9375 190.852 20.9844 190.43 21.0781L190.336 26.4219C190.57 26.4688 190.797 26.5156 191.016 26.5625C191.25 26.5938 191.477 26.6094 191.695 26.6094C192.023 26.6094 192.383 26.5781 192.773 26.5156C193.164 26.4375 193.531 26.2969 193.875 26.0938C194.219 25.875 194.5 25.5859 194.719 25.2266C194.953 24.8672 195.07 24.3906 195.07 23.7969C195.07 23.2031 194.953 22.7188 194.719 22.3438C194.5 21.9688 194.227 21.6797 193.898 21.4766C193.57 21.2578 193.211 21.1172 192.82 21.0547C192.43 20.9766 192.07 20.9375 191.742 20.9375ZM235.711 12.4062C235.711 13.625 235.602 14.7344 235.383 15.7344C235.18 16.7188 234.852 17.625 234.398 18.4531C233.945 19.2812 233.359 20.0469 232.641 20.75C231.922 21.4531 231.055 22.125 230.039 22.7656L235.617 32.7031L225.07 34.7656L221.461 24.7812L218.555 24.875L218.133 34.625H208.055C208.133 31.0625 208.203 27.5156 208.266 23.9844C208.344 20.4531 208.43 16.9062 208.523 13.3438C208.555 11.5469 208.586 9.76562 208.617 8C208.648 6.23438 208.711 4.45313 208.805 2.65625C209.898 2.25 210.977 1.91406 212.039 1.64844C213.102 1.38281 214.164 1.17969 215.227 1.03906C216.305 0.882812 217.391 0.78125 218.484 0.734375C219.594 0.671875 220.727 0.640625 221.883 0.640625C223.664 0.640625 225.383 0.890625 227.039 1.39062C228.711 1.875 230.188 2.60938 231.469 3.59375C232.75 4.57812 233.773 5.80469 234.539 7.27344C235.32 8.74219 235.711 10.4531 235.711 12.4062ZM225.211 13.1562C225.211 12.5 225.117 11.8984 224.93 11.3516C224.758 10.8047 224.492 10.3359 224.133 9.94531C223.789 9.53906 223.352 9.22656 222.82 9.00781C222.305 8.77344 221.695 8.65625 220.992 8.65625C220.68 8.65625 220.375 8.67969 220.078 8.72656C219.781 8.75781 219.492 8.8125 219.211 8.89062L218.836 17.6094H219.398C220.07 17.6094 220.75 17.5234 221.438 17.3516C222.141 17.1797 222.766 16.9141 223.312 16.5547C223.875 16.1953 224.328 15.7344 224.672 15.1719C225.031 14.6094 225.211 13.9375 225.211 13.1562ZM266.906 32.9844L255.281 34.4844L253.875 29.1875H248.531L247.359 34.4844L235.406 33.3125L244.734 2.09375L257.766 1.4375L266.906 32.9844ZM253.031 22.0156L251.25 13.8594L249.516 22.0156H253.031ZM289.383 10.2031L278.648 23.75H288.539L288.867 33.6875L267.961 34.5312L267.023 25.3438L279.258 10.3438L267.117 11.1875L267.023 1.76562H288.961L289.383 10.2031ZM303.445 2L301.805 33.9219L291.914 34.4375L290.977 2.65625L303.445 2ZM325.922 22.5781L324.938 32.9844L305.203 34.5312L305.953 1.0625H318.141L316.406 22.5781H325.922Z" fill="#09A599"/>
</svg>
