<svg width="53" height="53" viewBox="0 0 53 53" fill="none" xmlns="http://www.w3.org/2000/svg">
<g clip-path="url(#clip0_572_95)">
<path d="M24.7843 32.8628L4.64697 53H44.9215L24.7843 32.8628Z" fill="#167EE6"/>
<path d="M44.8063 53L24.7715 32.8499V53H44.8063Z" fill="#2860CC"/>
<path d="M49.5435 5.18478C49.5435 4.21691 48.783 3.45648 47.8152 3.45648H4.64697L49.5434 48.3529V5.18478H49.5435Z" fill="#B8C8D9"/>
<path d="M1.7283 3.45648C0.760426 3.45648 0 4.21691 0 5.18478V48.4682L45.0116 3.45648H1.7283Z" fill="#12B347"/>
<path d="M49.0422 3.9577C48.7311 3.64664 48.2991 3.45648 47.8152 3.45648H24.7715V28.2285L49.0422 3.9577Z" fill="#0F993E"/>
<path d="M27.2143 25.7856L49.5435 48.1148V51.2717C49.5435 52.2396 48.783 53 47.8152 53H44.6582L22.3291 30.6709L27.2143 25.7856Z" fill="#E6F3FF"/>
<path d="M49.5435 5.18478V8.36468L4.87362 53H1.7283C0.760322 53 0 52.2395 0 51.2717V48.1262L21.3038 26.8225L44.6353 3.45648H47.8152C48.7832 3.45648 49.5435 4.2168 49.5435 5.18478Z" fill="#FFD500"/>
<path d="M49.5433 5.18478V8.36478L24.7681 33.1279V23.35L44.635 3.45648H47.815C48.783 3.45648 49.5433 4.21691 49.5433 5.18478Z" fill="#FFAA00"/>
<path d="M14.9785 24.1956C11.1676 24.1956 8.06543 21.0935 8.06543 17.2825C8.06543 13.4716 11.1676 10.3694 14.9785 10.3694C15.9135 10.3694 16.8215 10.555 17.6722 10.9163C18.5498 11.291 18.9583 12.3069 18.5835 13.1848C18.2088 14.0591 17.1962 14.4708 16.3151 14.0961C15.8966 13.9171 15.4443 13.826 14.9785 13.826C13.0713 13.826 11.522 15.3754 11.522 17.2825C11.522 19.1897 13.0713 20.739 14.9785 20.739C16.2544 20.739 17.3717 20.0437 17.9726 19.0107H16.7068C15.7516 19.0107 14.9785 18.2378 14.9785 17.2824C14.9785 16.3271 15.7515 15.5541 16.7068 15.5541H20.1633C21.1185 15.5541 21.8916 16.3271 21.8916 17.2824C21.8915 21.0936 18.7894 24.1956 14.9785 24.1956Z" fill="white"/>
<path d="M40.9021 0C34.232 0 28.8042 5.42774 28.8042 12.0979C28.8042 14.2244 29.3645 16.3139 30.421 18.14L39.4066 33.7012C39.7137 34.2345 40.2842 34.5653 40.902 34.5653C41.5197 34.5653 42.0902 34.2345 42.3974 33.7012L51.3829 18.14C52.4396 16.3139 52.9999 14.2244 52.9999 12.0979C52.9999 5.42774 47.5722 0 40.9021 0Z" fill="#FF4B26"/>
<path d="M42.3978 33.7011L51.3834 18.1399C52.4399 16.3139 53.0002 14.2244 53.0002 12.0979C53.0002 5.42774 47.5725 0 40.9023 0V6.91308C43.7613 6.91308 46.0871 9.23887 46.0871 12.0979C46.0871 14.9569 43.7613 17.2827 40.9023 17.2827V34.5653C41.52 34.5652 42.0906 34.2344 42.3978 33.7011Z" fill="#D93F21"/>
<path d="M40.9021 17.2827C38.0431 17.2827 35.7173 14.9569 35.7173 12.0979C35.7173 9.23888 38.0431 6.91309 40.9021 6.91309C43.7611 6.91309 46.0869 9.23888 46.0869 12.0979C46.0869 14.9569 43.7611 17.2827 40.9021 17.2827Z" fill="#BF381D"/>
</g>
<defs>
<clipPath id="clip0_572_95">
<rect width="53" height="53" fill="white"/>
</clipPath>
</defs>
</svg>
