<svg width="59" height="62" viewBox="0 0 59 62" fill="none" xmlns="http://www.w3.org/2000/svg">
<g filter="url(#filter0_d_540_36)">
<ellipse cx="29.0648" cy="27" rx="25.0648" ry="27" fill="#F6F6F6"/>
<g clip-path="url(#clip0_540_36)">
<path fill-rule="evenodd" clip-rule="evenodd" d="M29.1289 25C25.8042 25 23.1003 22.309 23.1003 19C23.1003 15.691 25.8042 13 29.1289 13C32.4537 13 35.1575 15.691 35.1575 19C35.1575 22.309 32.4537 25 29.1289 25ZM34.7928 26.0094C37.1846 24.0939 38.5787 20.9964 38.0663 17.6049C37.4709 13.6704 34.1824 10.522 30.2126 10.063C24.7341 9.42847 20.0861 13.6735 20.0861 19C20.0861 21.835 21.4063 24.3609 23.4651 26.0094C18.4071 27.9009 14.7146 32.3425 14.1359 38.3365C14.0515 39.223 14.7463 40 15.6415 40C16.4086 40 17.0627 39.424 17.1306 38.6635C17.7349 31.969 22.8848 28 29.1289 28C35.373 28 40.5229 31.969 41.1273 38.6635C41.1951 39.424 41.8492 40 42.6163 40C43.5116 40 44.2064 39.223 44.122 38.3365C43.5432 32.3425 39.8507 27.9009 34.7928 26.0094Z" fill="black"/>
</g>
</g>
<defs>
<filter id="filter0_d_540_36" x="0" y="0" width="58.1296" height="62" filterUnits="userSpaceOnUse" color-interpolation-filters="sRGB">
<feFlood flood-opacity="0" result="BackgroundImageFix"/>
<feColorMatrix in="SourceAlpha" type="matrix" values="0 0 0 0 0 0 0 0 0 0 0 0 0 0 0 0 0 0 127 0" result="hardAlpha"/>
<feOffset dy="4"/>
<feGaussianBlur stdDeviation="2"/>
<feComposite in2="hardAlpha" operator="out"/>
<feColorMatrix type="matrix" values="0 0 0 0 0 0 0 0 0 0 0 0 0 0 0 0 0 0 0.25 0"/>
<feBlend mode="normal" in2="BackgroundImageFix" result="effect1_dropShadow_540_36"/>
<feBlend mode="normal" in="SourceGraphic" in2="effect1_dropShadow_540_36" result="shape"/>
</filter>
<clipPath id="clip0_540_36">
<rect width="30" height="30" fill="white" transform="translate(14.1289 10)"/>
</clipPath>
</defs>
</svg>
