<svg width="35" height="35" viewBox="0 0 35 35" fill="none" xmlns="http://www.w3.org/2000/svg">
<path d="M31.0832 17.6424C31.0832 20.3289 30.2865 22.955 28.794 25.1888C27.3015 27.4225 25.1801 29.1635 22.6981 30.1916C20.2161 31.2196 17.485 31.4886 14.8502 30.9645C12.2153 30.4404 9.79502 29.1467 7.89539 27.2471C5.99576 25.3475 4.7021 22.9272 4.17799 20.2923C3.65389 17.6575 3.92288 14.9264 4.95095 12.4444C5.97902 9.96241 7.72 7.84102 9.95373 6.34849C12.1875 4.85596 14.8136 4.05933 17.5001 4.05933C19.2839 4.0591 21.0503 4.41028 22.6984 5.09282C24.3465 5.77535 25.8439 6.77587 27.1053 8.03722C28.3666 9.29857 29.3671 10.796 30.0497 12.4441C30.7322 14.0922 31.0834 15.8586 31.0832 17.6424ZM19.4096 17.6596L24.6116 12.4559C24.8622 12.2002 25.0017 11.856 24.9999 11.498C24.9981 11.14 24.8551 10.7971 24.602 10.544C24.3488 10.2908 24.006 10.1478 23.648 10.146C23.29 10.1442 22.9457 10.2837 22.69 10.5343L17.4898 15.738L12.2844 10.5343C12.0287 10.2837 11.6845 10.1442 11.3265 10.146C10.9685 10.1478 10.6256 10.2908 10.3725 10.544C10.1193 10.7971 9.97632 11.14 9.97452 11.498C9.97271 11.856 10.1123 12.2002 10.3628 12.4559L15.5682 17.6596L10.3645 22.8632C10.1231 23.1207 9.99125 23.462 9.99697 23.8149C10.0027 24.1678 10.1455 24.5047 10.3952 24.7541C10.6449 25.0036 10.9819 25.1461 11.3348 25.1515C11.6877 25.1569 12.0289 25.0248 12.2861 24.7831L17.4881 19.5794L22.6918 24.7831C22.9474 25.0337 23.2917 25.1732 23.6497 25.1714C24.0077 25.1696 24.3505 25.0266 24.6037 24.7734C24.8568 24.5203 24.9998 24.1775 25.0016 23.8195C25.0034 23.4615 24.8639 23.1172 24.6133 22.8615L19.4096 17.6596Z" fill="#FF0B0B"/>
</svg>
