<svg width="35" height="35" viewBox="0 0 31 30" fill="none" xmlns="http://www.w3.org/2000/svg">
<path d="M19.3939 5.21376C19.8695 5.90014 20.2055 6.74785 20.3929 7.73341C20.5708 8.66892 20.6106 9.70945 20.5113 10.8265C20.4745 11.2396 20.42 11.7076 20.3407 12.2025C20.955 12.9684 21.7598 13.4547 22.8062 13.4546C25.7092 13.4543 26.7537 9.71185 27.0271 6.63772C27.3639 2.8505 25.9732 0.000244141 22.8062 0.000244141C20.321 0.000244141 18.9298 1.75613 18.6088 4.3425C18.8992 4.58998 19.1626 4.87987 19.3939 5.21376Z" fill="#757575"/>
<path d="M30.6586 22.3659C30.627 21.173 30.5184 19.9746 30.3566 18.8001C30.1609 17.3776 29.9115 15.2918 28.9469 14.3646C28.389 13.8287 27.6666 13.6528 27.0281 13.3297C26.7171 13.1724 26.4387 13.0162 26.1774 12.8384C25.2953 14.0839 24.1451 14.7353 22.8057 14.7355C21.7635 14.7355 20.8365 14.339 20.0606 13.5768C19.8819 14.2882 19.6428 15.0046 19.3231 15.6592C19.6039 15.8769 19.9076 16.0508 20.2766 16.2375C20.4399 16.3202 20.6192 16.3957 20.8092 16.4755C21.3225 16.6915 21.9042 16.9363 22.4265 17.4383C23.6681 18.6317 23.9738 20.8678 24.1969 22.5007L24.221 22.6769C24.3364 23.5142 24.4212 24.3368 24.4757 25.136C25.4667 25.0053 26.4525 24.7819 27.4192 24.5191C28.2006 24.3067 28.9768 24.0475 29.7285 23.6984C30.3289 23.4195 30.6833 23.2898 30.6586 22.3659Z" fill="#757575"/>
<path d="M8.51389 13.4544C9.56022 13.4546 10.365 12.9683 10.9793 12.2023C10.9 11.7075 10.8456 11.2395 10.8088 10.8263C10.7095 9.70933 10.7493 8.66874 10.9271 7.73323C11.1145 6.74774 11.4506 5.89996 11.9262 5.21357C12.1575 4.87963 12.4208 4.58974 12.7112 4.34226C12.3902 1.75589 10.9989 0 8.51375 0C5.34678 0 3.95604 2.85032 4.29286 6.63747C4.56639 9.71173 5.61095 13.4542 8.51389 13.4544Z" fill="#757575"/>
<path d="M8.89331 17.4383C9.41561 16.9363 9.99743 16.6915 10.5107 16.4755C10.7006 16.3957 10.8798 16.3202 11.0432 16.2375C11.4122 16.0509 11.716 15.877 11.9967 15.6592C11.6771 15.0048 11.4379 14.2882 11.2593 13.5768C10.4834 14.339 9.5563 14.7355 8.51414 14.7355C7.17482 14.7354 6.02453 14.0838 5.14247 12.8384C4.88124 13.0162 4.60266 13.1723 4.29178 13.3297C3.65325 13.6528 2.93085 13.8287 2.373 14.3647C1.4084 15.2919 1.15893 17.3775 0.963248 18.8001C0.801483 19.9745 0.692855 21.173 0.661237 22.3659C0.636629 23.2899 0.990944 23.4195 1.59134 23.6984C2.343 24.0475 3.11928 24.3066 3.9006 24.5191C4.86727 24.782 5.8532 25.0053 6.84409 25.136C6.8986 24.3368 6.98335 23.5143 7.09884 22.6769L7.12286 22.5007C7.3461 20.8679 7.65169 18.6317 8.89331 17.4383Z" fill="#757575"/>
<path d="M23.7168 22.7889L23.6926 22.6119C23.4839 21.0847 23.1979 18.9932 22.1146 17.9519C21.6577 17.5128 21.1405 17.2952 20.6402 17.0847C20.4432 17.0018 20.2573 16.9235 20.0801 16.8339C19.8218 16.7032 19.5891 16.5753 19.371 16.4338C18.4551 18.0074 17.1857 18.836 15.6758 18.8362C14.1662 18.8362 12.897 18.0076 11.9811 16.4338C11.763 16.5754 11.5303 16.7033 11.272 16.834C11.095 16.9235 10.9089 17.0018 10.712 17.0847C10.2116 17.2952 9.69425 17.5129 9.23749 17.9519C8.15381 18.9933 7.86808 21.0853 7.6594 22.6128L7.63523 22.7892C7.46087 24.0569 7.3568 25.2868 7.32602 26.4445C7.28989 27.8027 7.94464 28.1054 8.52224 28.3727L8.58445 28.4015C9.27906 28.7242 10.0561 29.0006 10.9598 29.2465C12.8052 29.748 14.3028 29.9875 15.6725 30H15.676H15.6795C17.0494 29.9874 18.5469 29.748 20.392 29.2465C21.2959 29.0007 22.0729 28.7243 22.7672 28.4016L22.8293 28.3728C23.4071 28.1056 24.062 27.8029 24.0259 26.4444C23.9952 25.2837 23.891 24.0539 23.7168 22.7889Z" fill="#757575"/>
<path d="M11.4935 11.0244C11.7669 14.0987 12.8113 17.8415 15.7143 17.8413C18.6172 17.8411 19.6618 14.0987 19.9352 11.0244C20.272 7.23728 18.8811 4.38708 15.7143 4.38708C12.5479 4.38696 11.1562 7.23696 11.4935 11.0244Z" fill="#757575"/>
</svg>
