<svg width="45" height="45" viewBox="0 0 40 40" fill="none" xmlns="http://www.w3.org/2000/svg">
<path d="M23.2305 31.2656H10.6406C10.2227 31.2656 9.88281 31.6055 9.88281 32.0234C9.88281 32.4414 10.2227 32.7812 10.6406 32.7812H23.2305C23.6484 32.7812 23.9883 32.4414 23.9883 32.0234C23.9883 31.6016 23.6484 31.2656 23.2305 31.2656Z" fill="black" fill-opacity="0.5"/>
<path d="M35.6602 30.1328V31.6562H37.8125C37.4961 30.7695 36.6523 30.1328 35.6602 30.1328Z" fill="#757575"/>
<path d="M31.8594 26.4023V9.1875C31.8594 8.55859 31.3477 8.05078 30.7227 8.05078H3.14844C2.51953 8.05078 2.01172 8.5625 2.01172 9.1875V26.4023C2.01172 27.0312 2.52344 27.5391 3.14844 27.5391H30.7227C31.3516 27.543 31.8594 27.0312 31.8594 26.4023ZM30.1445 24.7617C30.1445 25.3867 29.6328 25.8984 29.0078 25.8984H4.86719C4.24219 25.8984 3.73047 25.3867 3.73047 24.7617V10.832C3.73047 10.207 4.24219 9.69531 4.86719 9.69531H29.0078C29.6328 9.69531 30.1445 10.207 30.1445 10.832V24.7617Z" fill="white"/>
<path d="M29.0078 9.69531H4.86719C4.24219 9.69531 3.73047 10.207 3.73047 10.832V24.7617C3.73047 25.3867 4.24219 25.8984 4.86719 25.8984H29.0078C29.6328 25.8984 30.1445 25.3867 30.1445 24.7617V10.832C30.1445 10.207 29.6328 9.69531 29.0078 9.69531ZM8.56641 10.9531C8.56641 10.8906 8.61719 10.8438 8.67578 10.8438H11.0703C11.1328 10.8438 11.1797 10.8945 11.1797 10.9531V11.6367C11.1797 11.6992 11.1289 11.7461 11.0703 11.7461H8.67578C8.61328 11.7461 8.56641 11.6953 8.56641 11.6367V10.9531ZM7.38281 10.8164C7.64062 10.8164 7.84766 11.0234 7.84766 11.2812C7.84766 11.5391 7.64062 11.7461 7.38281 11.7461C7.125 11.7461 6.91797 11.5391 6.91797 11.2812C6.91797 11.0234 7.12891 10.8164 7.38281 10.8164ZM5.85938 10.8164C6.11719 10.8164 6.32422 11.0234 6.32422 11.2812C6.32422 11.5391 6.11719 11.7461 5.85938 11.7461C5.60156 11.7461 5.39453 11.5391 5.39453 11.2812C5.39453 11.0234 5.60156 10.8164 5.85938 10.8164ZM15.1289 17.9141C15.1289 20.5625 12.9727 22.7187 10.3242 22.7187C7.67578 22.7187 5.51953 20.5625 5.51953 17.9141C5.51953 15.2656 7.67578 13.1094 10.3242 13.1094H10.7031V17.5352H15.1289V17.9141ZM11.6094 16.4023V12.7031C13.6523 12.7031 15.3086 14.3594 15.3086 16.4023H11.6094ZM26.2031 22.2187H20.707C20.4961 22.2187 20.3281 22.0508 20.3281 21.8398C20.3281 21.6289 20.4961 21.4609 20.707 21.4609H26.2031C26.4141 21.4609 26.582 21.6289 26.582 21.8398C26.582 22.0469 26.4141 22.2187 26.2031 22.2187ZM26.2031 19.3555H20.5156C20.3047 19.3555 20.1367 19.1875 20.1367 18.9766C20.1367 18.7656 20.3047 18.5977 20.5156 18.5977H26.2031C26.4141 18.5977 26.582 18.7656 26.582 18.9766C26.582 19.1875 26.4141 19.3555 26.2031 19.3555ZM26.2031 16.4883H18.0156C17.8047 16.4883 17.6367 16.3203 17.6367 16.1094C17.6367 15.8984 17.8047 15.7305 18.0156 15.7305H26.207C26.418 15.7305 26.5859 15.8984 26.5859 16.1094C26.5859 16.3203 26.4141 16.4883 26.2031 16.4883ZM26.2031 13.625H18.0156C17.8047 13.625 17.6367 13.457 17.6367 13.2461C17.6367 13.0352 17.8047 12.8672 18.0156 12.8672H26.207C26.418 12.8672 26.5859 13.0352 26.5859 13.2461C26.5859 13.457 26.4141 13.625 26.2031 13.625Z" fill="#E6E6E6"/>
<path d="M9.94531 13.8867C7.89063 14.0781 6.27734 15.8125 6.27734 17.9141C6.27734 20.1445 8.09375 21.9609 10.3242 21.9609C12.4258 21.9609 14.1602 20.3477 14.3516 18.293H9.94531V13.8867Z" fill="white"/>
<path d="M10.7031 13.1094H10.3242C7.67578 13.1094 5.51953 15.2656 5.51953 17.9141C5.51953 20.5625 7.67578 22.7187 10.3242 22.7187C12.9727 22.7187 15.1289 20.5625 15.1289 17.9141V17.5352H10.7031V13.1094ZM14.3516 18.2969C14.1602 20.3516 12.4258 21.9648 10.3242 21.9648C8.09375 21.9648 6.27734 20.1484 6.27734 17.918C6.27734 15.8164 7.89063 14.082 9.94531 13.8906V18.2969H14.3516Z" fill="black" fill-opacity="0.5"/>
<path d="M11.6094 12.7031V16.4023H15.3086C15.3086 14.3594 13.6523 12.7031 11.6094 12.7031Z" fill="black" fill-opacity="0.5"/>
<path d="M5.39453 11.2812C5.39453 11.4045 5.44351 11.5228 5.53068 11.6099C5.61786 11.6971 5.73609 11.7461 5.85937 11.7461C5.98266 11.7461 6.10089 11.6971 6.18807 11.6099C6.27524 11.5228 6.32422 11.4045 6.32422 11.2812C6.32422 11.158 6.27524 11.0397 6.18807 10.9526C6.10089 10.8654 5.98266 10.8164 5.85937 10.8164C5.73609 10.8164 5.61786 10.8654 5.53068 10.9526C5.44351 11.0397 5.39453 11.158 5.39453 11.2812Z" fill="white"/>
<path d="M6.91797 11.2812C6.91797 11.4045 6.96694 11.5228 7.05412 11.6099C7.14129 11.6971 7.25953 11.7461 7.38281 11.7461C7.5061 11.7461 7.62433 11.6971 7.71151 11.6099C7.79868 11.5228 7.84766 11.4045 7.84766 11.2812C7.84766 11.158 7.79868 11.0397 7.71151 10.9526C7.62433 10.8654 7.5061 10.8164 7.38281 10.8164C7.25953 10.8164 7.14129 10.8654 7.05412 10.9526C6.96694 11.0397 6.91797 11.158 6.91797 11.2812Z" fill="white"/>
<path d="M8.67578 11.7461H11.0703C11.1328 11.7461 11.1797 11.6953 11.1797 11.6367V10.9531C11.1797 10.8906 11.1289 10.8438 11.0703 10.8438H8.67578C8.61328 10.8438 8.56641 10.8945 8.56641 10.9531V11.6367C8.56641 11.6992 8.61719 11.7461 8.67578 11.7461Z" fill="white"/>
<path d="M35.6602 28.6133C33.8242 28.6133 32.2891 29.9219 31.9375 31.6523H27.418C26.9609 31.6523 26.6289 31.5625 26.5117 31.4062C26.4336 31.3008 26.4336 31.1328 26.4336 31.0547V29.0586H30.7266C32.1914 29.0586 33.3789 27.8672 33.3789 26.4062V9.1875C33.3789 7.72266 32.1875 6.53516 30.7266 6.53516H3.14844C1.68359 6.53516 0.496094 7.72656 0.496094 9.1875V26.4023C0.496094 27.8672 1.6875 29.0547 3.14844 29.0547H24.9141V31.0547C24.9141 31.2422 24.9141 31.8086 25.3008 32.3203C25.7266 32.8828 26.4375 33.168 27.418 33.168H39.457V32.4102C39.457 30.3164 37.7539 28.6133 35.6602 28.6133ZM3.14844 27.543C2.51953 27.543 2.01172 27.0312 2.01172 26.4062V9.1875C2.01172 8.55859 2.52344 8.05078 3.14844 8.05078H30.7227C31.3516 8.05078 31.8594 8.5625 31.8594 9.1875V26.4023C31.8594 27.0313 31.3477 27.5391 30.7227 27.5391H3.14844V27.543ZM35.6602 31.6523H33.5078C33.8203 30.7656 34.668 30.1289 35.6602 30.1289C36.6523 30.1289 37.5 30.7656 37.8125 31.6523H35.6602Z" fill="black" fill-opacity="0.5"/>
<path d="M26.2031 12.8672H18.0156C17.8047 12.8672 17.6367 13.0352 17.6367 13.2461C17.6367 13.457 17.8047 13.625 18.0156 13.625H26.207C26.418 13.625 26.5859 13.457 26.5859 13.2461C26.5859 13.0352 26.4141 12.8672 26.2031 12.8672Z" fill="black" fill-opacity="0.5"/>
<path d="M26.2031 15.7305H18.0156C17.8047 15.7305 17.6367 15.8984 17.6367 16.1094C17.6367 16.3203 17.8047 16.4883 18.0156 16.4883H26.207C26.418 16.4883 26.5859 16.3203 26.5859 16.1094C26.5859 15.8984 26.4141 15.7305 26.2031 15.7305ZM26.2031 18.5977H20.5156C20.3047 18.5977 20.1367 18.7656 20.1367 18.9766C20.1367 19.1875 20.3047 19.3555 20.5156 19.3555H26.2031C26.4141 19.3555 26.582 19.1875 26.582 18.9766C26.582 18.7656 26.4141 18.5977 26.2031 18.5977Z" fill="black"/>
<path d="M26.2031 21.4609H20.707C20.4961 21.4609 20.3281 21.6289 20.3281 21.8398C20.3281 22.0508 20.4961 22.2187 20.707 22.2187H26.2031C26.4141 22.2187 26.582 22.0508 26.582 21.8398C26.582 21.6289 26.4141 21.4609 26.2031 21.4609Z" fill="black" fill-opacity="0.5"/>
</svg>
