<svg width="35" height="35" viewBox="0 0 30 30" fill="none" xmlns="http://www.w3.org/2000/svg">
<path d="M28.7477 28.9501C28.9897 28.9501 29.2186 28.8344 29.371 28.6347C29.5234 28.4351 29.5829 28.1732 29.5329 27.9219L29.0275 25.3825C29.3153 25.0869 29.4962 24.6741 29.4962 24.2152C29.4962 23.7321 29.2936 23.3035 28.979 23.0058V14.1875L26.9532 15.5186V23.0058C26.6387 23.3035 26.436 23.7321 26.436 24.2152C26.436 24.6742 26.6169 25.0869 26.9047 25.3825L26.3993 27.9219C26.3493 28.1732 26.4088 28.4351 26.5611 28.6347C26.7135 28.8343 26.9425 28.9501 27.1845 28.9501H28.7477ZM29.4344 9.04165L16.2553 0.379171C15.8693 0.126727 15.4342 0 14.9991 0C14.564 0 14.1286 0.12662 13.7449 0.379171L0.56565 9.04165C0.213735 9.27286 0 9.68123 0 10.1207C0 10.5603 0.213735 10.9688 0.56565 11.2004L13.7449 19.863C14.1285 20.1157 14.5639 20.2421 14.999 20.2421C15.4341 20.2421 15.8693 20.1155 16.2552 19.863L29.4344 11.2004C29.7863 10.9689 30 10.5603 30 10.1207C30 9.68123 29.7863 9.27273 29.4344 9.04165ZM14.999 22.393C14.1781 22.393 13.3768 22.1509 12.6784 21.692L4.99091 16.6386V25.34C4.99091 27.9153 9.4738 30 14.999 30C20.5262 30 25.0087 27.9153 25.0087 25.34V16.6386L17.3215 21.692C16.6231 22.1509 15.82 22.393 14.999 22.393Z" fill="#757575"/>
</svg>
