<svg width="35" height="35" viewBox="0 0 30 30" fill="none" xmlns="http://www.w3.org/2000/svg">
<path d="M30 10C30 9.65625 29.7188 9.375 29.375 9.375H21.25C20.9062 9.375 20.625 9.09375 20.625 8.75V0.625C20.625 0.28125 20.3438 0 20 0H10C9.65625 0 9.375 0.28125 9.375 0.625V8.75C9.375 9.09375 9.09375 9.375 8.75 9.375H0.625C0.28125 9.375 0 9.65625 0 10V20C0 20.3438 0.28125 20.625 0.625 20.625H8.75C9.09375 20.625 9.375 20.9062 9.375 21.25V29.375C9.375 29.7188 9.65625 30 10 30H20C20.3438 30 20.625 29.7188 20.625 29.375V21.25C20.625 20.9062 20.9062 20.625 21.25 20.625H29.375C29.7188 20.625 30 20.3438 30 20V10Z" fill="#757575"/>
</svg>
